<svg width="282" height="49" viewBox="0 0 282 49" fill="none" xmlns="http://www.w3.org/2000/svg">
<g filter="url(#filter0_d_3_41)">
<path d="M15.0312 0.203125C20.6094 0.203125 23.3984 3.48438 23.3984 10.0469C23.3984 15.0312 21.75 21.7031 18.4531 30.0625C23 27.625 26.5781 24.7969 29.1875 21.5781C31.6094 18.5781 33.5625 15.0234 35.0469 10.9141C33.625 10.2109 32.4375 9.30469 31.4844 8.19531C30.5312 7.07031 30.0547 5.86719 30.0547 4.58594C30.0547 3.30469 30.4453 2.25781 31.2266 1.44531C32.0078 0.617188 32.9922 0.203125 34.1797 0.203125C35.3672 0.203125 36.2969 0.632812 36.9688 1.49219C37.6406 2.33594 37.9766 3.51562 37.9766 5.03125C37.9766 6.54688 37.6875 8.3125 37.1094 10.3281C38.2344 10.9062 39.4219 11.3281 40.6719 11.5938L40.25 12.6953C38.4531 12.2422 37.2812 11.9062 36.7344 11.6875C35.1875 16.3594 32.5469 20.6016 28.8125 24.4141C25.0938 28.2109 20.3281 31.4062 14.5156 34H12.5938C13.5938 32.0469 14.6562 29.2109 15.7812 25.4922C17.9688 18.3359 19.0625 12.7578 19.0625 8.75781C19.0625 3.99219 17.625 1.60938 14.75 1.60938C13.4688 1.60938 12.3125 1.9375 11.2812 2.59375C10.25 3.23437 9.41406 4.05469 8.77344 5.05469C8.13281 6.05469 7.60156 7.20312 7.17969 8.5C6.39844 10.8125 6.00781 13.2188 6.00781 15.7188C6.00781 17.8438 6.24219 19.6875 6.71094 21.25C7.55469 24.0625 8.8125 26.0234 10.4844 27.1328L9.38281 28.0469C7.72656 26.6562 6.50781 24.8203 5.72656 22.5391C4.96094 20.2578 4.57812 18.1641 4.57812 16.2578C4.57812 14.3516 4.69531 12.7188 4.92969 11.3594C5.16406 10 5.54688 8.64844 6.07812 7.30469C6.625 5.94531 7.28906 4.75 8.07031 3.71875C8.85156 2.67187 9.84375 1.82812 11.0469 1.1875C12.25 0.53125 13.5781 0.203125 15.0312 0.203125ZM34.7188 2.45312C34.1562 2.45312 33.6719 2.67187 33.2656 3.10938C32.8594 3.53125 32.6562 4.11719 32.6562 4.86719C32.6562 5.60156 32.9219 6.39062 33.4531 7.23438C34 8.0625 34.6953 8.78906 35.5391 9.41406C36.0547 7.55469 36.3125 6.14062 36.3125 5.17188C36.3125 3.35938 35.7812 2.45312 34.7188 2.45312ZM37.5547 34.375C36.8984 34.375 36.3828 34.1719 36.0078 33.7656C35.6328 33.3594 35.4453 32.8047 35.4453 32.1016C35.4453 31.3828 35.625 30.4141 35.9844 29.1953C36.3594 27.9609 36.7266 26.8438 37.0859 25.8438C37.4609 24.8438 37.6484 24.1797 37.6484 23.8516C37.6484 23.5078 37.5391 23.3359 37.3203 23.3359C36.7734 23.3359 35.8906 24.4141 34.6719 26.5703L33.1016 25.6562C35.3984 21.7812 37.5078 19.8438 39.4297 19.8438C40.7422 19.8438 41.3984 20.6719 41.3984 22.3281C41.3984 22.8125 41.2422 23.5859 40.9297 24.6484L39.2422 29.4766C39.0703 29.9297 38.9844 30.3438 38.9844 30.7188C38.9844 31.0781 39.125 31.2578 39.4062 31.2578C39.9375 31.2578 40.9141 30.2734 42.3359 28.3047L43.3203 29.2188C42.4766 30.7812 41.4688 32.0312 40.2969 32.9688C39.1406 33.9062 38.2266 34.375 37.5547 34.375ZM44.2344 12.9297C44.2344 13.5547 44.0234 14.125 43.6016 14.6406C43.1797 15.1562 42.6094 15.4141 41.8906 15.4141C41.1719 15.4141 40.6328 15.2031 40.2734 14.7812C39.9141 14.3438 39.7344 13.7969 39.7344 13.1406C39.7344 12.4844 39.9531 11.9062 40.3906 11.4062C40.8438 10.8906 41.4219 10.6328 42.125 10.6328C42.8281 10.6328 43.3516 10.8594 43.6953 11.3125C44.0547 11.75 44.2344 12.2891 44.2344 12.9297ZM46.9062 33.8359C45.8906 33.4766 45.1641 33.0547 44.7266 32.5703C44.2891 32.0703 44.0703 31.5234 44.0703 30.9297C44.0703 30.3359 44.2344 29.8438 44.5625 29.4531C44.8906 29.0625 45.3203 28.8672 45.8516 28.8672C46.3984 28.8672 46.875 29.0312 47.2812 29.3594C47.7031 29.6719 47.9141 30.125 47.9141 30.7188C47.9141 31.2969 47.5547 31.7812 46.8359 32.1719C47.4297 32.6875 48.3359 32.9453 49.5547 32.9453C52.1953 32.9453 53.5156 32.1953 53.5156 30.6953C53.5156 29.7578 52.6797 29.0078 51.0078 28.4453C50.3203 28.2109 49.625 27.9609 48.9219 27.6953C48.2344 27.4297 47.6328 27.0391 47.1172 26.5234C46.6016 26.0078 46.3203 25.3828 46.2734 24.6484C46.2734 23.5859 46.625 22.6875 47.3281 21.9531C48.6562 20.5469 50.6406 19.8438 53.2812 19.8438C54.5781 19.8438 55.7266 20.0938 56.7266 20.5938C57.7266 21.0781 58.2266 21.7109 58.2266 22.4922C58.2266 23.2734 58.0234 23.8359 57.6172 24.1797C57.2266 24.5234 56.7656 24.6953 56.2344 24.6953C55.7031 24.6953 55.25 24.5547 54.875 24.2734C54.5156 23.9766 54.3359 23.5703 54.3359 23.0547C54.3359 22.5391 54.6406 22.0938 55.25 21.7188C54.875 21.4531 54.2266 21.3203 53.3047 21.3203C52.3828 21.3203 51.5547 21.4609 50.8203 21.7422C50.0859 22.0078 49.7188 22.375 49.7188 22.8438C49.7188 23.3125 49.9844 23.7031 50.5156 24.0156C51.0625 24.3281 51.7188 24.6172 52.4844 24.8828C53.25 25.1484 54.0156 25.4531 54.7812 25.7969C55.5469 26.1406 56.1953 26.6328 56.7266 27.2734C57.2734 27.9141 57.5469 28.7031 57.5469 29.6406C57.5469 30.5781 57.1641 31.4297 56.3984 32.1953C54.9453 33.6484 52.9609 34.375 50.4453 34.375C49.1172 34.375 47.9375 34.1953 46.9062 33.8359ZM70.25 31.8438C70.25 31.0312 70.5781 29.7266 71.2344 27.9297C71.8906 26.1328 72.2188 24.8516 72.2188 24.0859C72.2188 23.3047 71.9453 22.9141 71.3984 22.9141C70.8672 22.9141 70.2188 23.2969 69.4531 24.0625C68.6875 24.8125 67.9531 25.7344 67.25 26.8281C66.0938 28.5938 64.9297 30.6094 63.7578 32.875L63.1484 34H59.7734C60.5391 28.3438 61.2734 24.1562 61.9766 21.4375C62.6797 18.7188 63.3516 16.3984 63.9922 14.4766C64.6328 12.5547 65.3203 10.8516 66.0547 9.36719C67.7109 5.96094 69.6172 3.4375 71.7734 1.79688L73.5547 2.61719C71.8828 4.28906 70.3438 7.23438 68.9375 11.4531C67.5469 15.6562 66 21.4609 64.2969 28.8672C64.3906 28.7109 64.5781 28.3828 64.8594 27.8828C65.1562 27.3672 65.3828 26.9844 65.5391 26.7344C65.6953 26.4688 65.9297 26.0781 66.2422 25.5625C66.5703 25.0469 66.8438 24.6406 67.0625 24.3438C67.2812 24.0312 67.5625 23.6484 67.9062 23.1953C68.2656 22.7422 68.5781 22.3828 68.8438 22.1172C69.125 21.8359 69.4531 21.5391 69.8281 21.2266C70.2031 20.8984 70.5625 20.6406 70.9062 20.4531C71.7031 20.0469 72.5547 19.8438 73.4609 19.8438C74.3672 19.8438 75.0469 20.0938 75.5 20.5938C75.9688 21.0938 76.2031 21.7656 76.2031 22.6094C76.2031 23.4531 75.8125 24.875 75.0312 26.875C74.25 28.8594 73.8594 30.0859 73.8594 30.5547C73.8594 31.0234 73.9844 31.2578 74.2344 31.2578C74.8906 31.2578 75.8828 30.2656 77.2109 28.2812L78.2188 29.2188C77.2188 30.9375 76.1719 32.2266 75.0781 33.0859C74 33.9453 73.1094 34.375 72.4062 34.375C71.7188 34.375 71.1875 34.1562 70.8125 33.7188C70.4375 33.2812 70.25 32.6562 70.25 31.8438ZM85.8359 27.4141C89.1016 22.3672 92.0312 19.8438 94.625 19.8438C95.5 19.8438 96.1562 20.1094 96.5938 20.6406C97.0312 21.1719 97.25 21.8438 97.25 22.6562C97.25 23.4688 96.8828 24.875 96.1484 26.875C95.4297 28.875 95.0703 30.1172 95.0703 30.6016C95.0703 31.0703 95.1875 31.3047 95.4219 31.3047C95.7344 31.3047 96.1953 30.9844 96.8047 30.3438C97.4141 29.6875 97.9531 29 98.4219 28.2812L99.4062 29.2188C98.4688 30.9219 97.4375 32.2109 96.3125 33.0859C95.2031 33.9453 94.2969 34.375 93.5938 34.375C92.9062 34.375 92.3672 34.1484 91.9766 33.6953C91.5859 33.2266 91.3906 32.5938 91.3906 31.7969C91.3906 31 91.7031 29.7031 92.3281 27.9062C92.9688 26.0938 93.2891 24.8125 93.2891 24.0625C93.2891 23.2969 93.0312 22.9141 92.5156 22.9141C91.9219 22.9141 91.2188 23.2969 90.4062 24.0625C89.5938 24.8125 88.8047 25.7344 88.0391 26.8281C86.8203 28.5781 85.5781 30.5938 84.3125 32.875L83.6797 34H80.375L81.1016 31.7969C82.4609 27.7344 83.1406 25.3281 83.1406 24.5781C83.1406 23.8125 83.0156 23.4297 82.7656 23.4297C82.3125 23.4297 81.7734 23.9688 81.1484 25.0469C81.0078 25.2969 80.8906 25.5 80.7969 25.6562C80.7031 25.7969 80.5938 25.9766 80.4688 26.1953C80.3594 26.3984 80.2891 26.5234 80.2578 26.5703L78.6875 25.6562C79.9062 23.6719 81.0234 22.2109 82.0391 21.2734C83.0547 20.3203 84.0938 19.8438 85.1562 19.8438C85.6406 19.8438 86.0547 20.0469 86.3984 20.4531C86.7578 20.8594 86.9375 21.3516 86.9375 21.9297C86.9375 22.5078 86.8906 23.0781 86.7969 23.6406C86.7031 24.1875 86.6016 24.6484 86.4922 25.0234C86.3984 25.3828 86.2656 25.8516 86.0938 26.4297C85.9375 27.0078 85.8516 27.3359 85.8359 27.4141ZM119.164 20.3594C117.07 25.9375 116.023 29.3203 116.023 30.5078C116.023 31.0078 116.148 31.2578 116.398 31.2578C117.086 31.2578 118.086 30.2578 119.398 28.2578L120.406 29.2188C119.578 30.7031 118.594 31.9375 117.453 32.9219C116.328 33.8906 115.414 34.375 114.711 34.375C113.258 34.375 112.531 33.6406 112.531 32.1719C112.531 31.0312 112.797 29.6406 113.328 28C113.859 26.3594 114.125 25.5312 114.125 25.5156C114.047 25.6562 113.859 25.9844 113.562 26.5C113.266 27 113.047 27.375 112.906 27.625C112.766 27.875 112.531 28.2578 112.203 28.7734C111.891 29.2734 111.625 29.6719 111.406 29.9688C111.203 30.25 110.922 30.6172 110.562 31.0703C110.219 31.5234 109.906 31.8828 109.625 32.1484C109.359 32.4141 109.039 32.7109 108.664 33.0391C108.289 33.3516 107.93 33.5938 107.586 33.7656C106.805 34.1719 106.039 34.375 105.289 34.375C103.43 34.375 102.5 33.3516 102.5 31.3047C102.5 30.3672 102.836 28.9141 103.508 26.9453C104.18 24.9609 104.516 23.7969 104.516 23.4531C104.516 23.0938 104.406 22.9141 104.188 22.9141C103.562 22.9141 102.695 23.9062 101.586 25.8906L100.062 24.9766C102.203 21.5547 104.266 19.8438 106.25 19.8438C106.906 19.8438 107.43 20.0312 107.82 20.4062C108.211 20.7656 108.391 21.3281 108.359 22.0938C108.344 22.8438 107.961 24.1953 107.211 26.1484C106.477 28.0859 106.109 29.5703 106.109 30.6016C106.109 31.1641 106.367 31.4453 106.883 31.4453C107.477 31.4453 108.18 31.0703 108.992 30.3203C109.82 29.5547 110.617 28.625 111.383 27.5312C112.602 25.8125 113.867 23.7969 115.18 21.4844L115.812 20.3594H119.164Z" fill="black"/>
<path d="M151.086 32.9219C149.57 33.5781 148.023 34.0469 146.445 34.3281C144.883 34.625 143.398 34.7734 141.992 34.7734C140.602 34.7734 139.344 34.6953 138.219 34.5391C137.109 34.3984 136 34.1484 134.891 33.7891C133.797 33.4141 132.852 32.9375 132.055 32.3594C130.273 31.0938 129.383 29.3047 129.383 26.9922C129.383 25.6172 129.703 24.3359 130.344 23.1484C130.984 21.9453 131.82 20.9531 132.852 20.1719C135.039 18.4844 137.43 17.6406 140.023 17.6406C143.133 17.6406 145.445 18.5547 146.961 20.3828C147.711 21.3047 148.086 22.4219 148.086 23.7344C148.086 25.0469 147.461 26.1875 146.211 27.1562C144.977 28.1094 143.672 28.5859 142.297 28.5859C141.969 28.5859 141.805 28.4219 141.805 28.0938C141.805 27.75 141.961 27.5078 142.273 27.3672C142.586 27.2109 142.961 27.0703 143.398 26.9453C143.836 26.8047 144.273 26.6406 144.711 26.4531C145.789 25.9688 146.328 25.1875 146.328 24.1094C146.328 23.0156 145.828 22.1953 144.828 21.6484C143.844 21.0859 142.125 20.8047 139.672 20.8047C137.219 20.8047 135.32 21.4297 133.977 22.6797C132.633 23.9141 131.961 25.3906 131.961 27.1094C131.961 29.375 132.969 30.9844 134.984 31.9375C136.781 32.7969 138.93 33.2266 141.43 33.2266C145.727 33.2266 149.203 32 151.859 29.5469C153.734 27.8281 154.672 25.6641 154.672 23.0547C154.672 21.4922 154.117 19.9766 153.008 18.5078C152.523 17.8516 151.984 17.2031 151.391 16.5625C150.797 15.9219 150.203 15.2812 149.609 14.6406C149.016 14 148.477 13.3594 147.992 12.7188C146.883 11.3125 146.328 10 146.328 8.78125C146.328 7.5625 146.523 6.51562 146.914 5.64062C147.32 4.75 147.852 3.98437 148.508 3.34375C149.18 2.6875 149.945 2.125 150.805 1.65625C152.539 0.6875 154.375 0.203125 156.312 0.203125C158 0.203125 159.57 0.609375 161.023 1.42188C162.617 2.29687 163.414 3.63281 163.414 5.42969C163.414 6.13281 163.164 6.75 162.664 7.28125C162.164 7.8125 161.602 8.07812 160.977 8.07812C160.352 8.07812 159.836 7.89844 159.43 7.53906C159.039 7.17969 158.844 6.78125 158.844 6.34375C158.844 5.89063 159.031 5.41406 159.406 4.91406C159.797 4.39844 159.992 3.97656 159.992 3.64844C159.992 3.30469 159.852 2.99219 159.57 2.71094C159.289 2.42969 158.93 2.21875 158.492 2.07812C157.617 1.8125 156.82 1.67969 156.102 1.67969C154.445 1.67969 153.023 2.17188 151.836 3.15625C150.648 4.14062 150.055 5.50781 150.055 7.25781C150.055 8.21094 150.648 9.32812 151.836 10.6094C152.367 11.1719 152.945 11.7734 153.57 12.4141C154.211 13.0391 154.852 13.7109 155.492 14.4297C156.133 15.1484 156.719 15.8906 157.25 16.6562C158.438 18.3438 159.031 20.0938 159.031 21.9062C159.031 23.7188 158.672 25.3594 157.953 26.8281C157.234 28.2969 156.289 29.5156 155.117 30.4844C153.961 31.4375 152.617 32.25 151.086 32.9219ZM173.891 20.3594H177.547L175.695 27.3672C175.398 28.3516 175.25 29.25 175.25 30.0625C175.25 30.8594 175.391 31.2578 175.672 31.2578C175.953 31.2578 176.336 31.0156 176.82 30.5312C177.32 30.0312 177.742 29.5312 178.086 29.0312L178.625 28.2812L179.633 29.2188C179.117 30.2188 178.461 31.1328 177.664 31.9609C176.117 33.5703 174.773 34.375 173.633 34.375C172.289 34.375 171.617 33.3359 171.617 31.2578C171.617 30.9141 171.633 30.6562 171.664 30.4844C171.43 31.2812 170.984 31.9844 170.328 32.5938C169.078 33.7812 167.664 34.375 166.086 34.375C164.523 34.375 163.266 33.8438 162.312 32.7812C161.375 31.7031 160.906 30.3594 160.906 28.75C160.906 26.25 161.719 24.1406 163.344 22.4219C164.969 20.7031 166.875 19.8438 169.062 19.8438C170.156 19.8438 171.062 20.1484 171.781 20.7578C172.5 21.3516 172.969 22.1328 173.188 23.1016L173.891 20.3594ZM169.977 21.8594C169.07 21.8594 168.219 22.2422 167.422 23.0078C166.641 23.7578 166.039 24.6719 165.617 25.75C165.195 26.8125 164.984 27.8516 164.984 28.8672C164.984 29.8828 165.203 30.7031 165.641 31.3281C166.094 31.9531 166.781 32.2656 167.703 32.2656C168.641 32.2656 169.484 31.8438 170.234 31C171.656 29.375 172.367 27.4453 172.367 25.2109C172.367 22.9766 171.57 21.8594 169.977 21.8594ZM189.195 21.9062L188.633 24.2969C187.586 28.7188 186.719 31.8281 186.031 33.625C184.703 37.0469 183 39.2109 180.922 40.1172C180.062 40.4922 179.195 40.6797 178.32 40.6797C177.43 40.6797 176.805 40.5078 176.445 40.1641C176.086 39.8359 175.906 39.4297 175.906 38.9453C175.906 38.4766 176.062 38.0703 176.375 37.7266C176.688 37.3828 177.086 37.2109 177.57 37.2109C178.039 37.2109 178.43 37.3203 178.742 37.5391C179.055 37.7578 179.211 38.0547 179.211 38.4297C179.211 38.8203 179.102 39.1875 178.883 39.5312C180.492 39.2812 181.938 36.2344 183.219 30.3906C183.422 29.4688 183.648 28.375 183.898 27.1094C184.164 25.8281 184.367 24.8906 184.508 24.2969L185.07 21.9062H180.664L181.039 20.3594H185.398C187.258 12.8125 189.438 7.54688 191.938 4.5625C194 2.10937 196.492 0.882812 199.414 0.882812C200.727 0.882812 201.828 1.14844 202.719 1.67969C203.625 2.21094 204.078 3.09375 204.078 4.32812C204.078 5.04688 203.828 5.61719 203.328 6.03906C202.844 6.44531 202.266 6.64844 201.594 6.64844C200.938 6.64844 200.375 6.46094 199.906 6.08594C199.453 5.69531 199.227 5.19531 199.227 4.58594C199.227 3.97656 199.438 3.38281 199.859 2.80469C199.094 2.53906 198.492 2.40625 198.055 2.40625C197.617 2.40625 197.094 2.625 196.484 3.0625C195.891 3.48438 195.359 4.05469 194.891 4.77344C193.062 7.58594 191.281 12.7812 189.547 20.3594H195.148L194.773 21.9062H189.195ZM205.906 20.3594H209.562L207.711 27.3672C207.414 28.3516 207.266 29.25 207.266 30.0625C207.266 30.8594 207.406 31.2578 207.688 31.2578C207.969 31.2578 208.352 31.0156 208.836 30.5312C209.336 30.0312 209.758 29.5312 210.102 29.0312L210.641 28.2812L211.648 29.2188C211.133 30.2188 210.477 31.1328 209.68 31.9609C208.133 33.5703 206.789 34.375 205.648 34.375C204.305 34.375 203.633 33.3359 203.633 31.2578C203.633 30.9141 203.648 30.6562 203.68 30.4844C203.445 31.2812 203 31.9844 202.344 32.5938C201.094 33.7812 199.68 34.375 198.102 34.375C196.539 34.375 195.281 33.8438 194.328 32.7812C193.391 31.7031 192.922 30.3594 192.922 28.75C192.922 26.25 193.734 24.1406 195.359 22.4219C196.984 20.7031 198.891 19.8438 201.078 19.8438C202.172 19.8438 203.078 20.1484 203.797 20.7578C204.516 21.3516 204.984 22.1328 205.203 23.1016L205.906 20.3594ZM201.992 21.8594C201.086 21.8594 200.234 22.2422 199.438 23.0078C198.656 23.7578 198.055 24.6719 197.633 25.75C197.211 26.8125 197 27.8516 197 28.8672C197 29.8828 197.219 30.7031 197.656 31.3281C198.109 31.9531 198.797 32.2656 199.719 32.2656C200.656 32.2656 201.5 31.8438 202.25 31C203.672 29.375 204.383 27.4453 204.383 25.2109C204.383 22.9766 203.586 21.8594 201.992 21.8594ZM219.289 31.75C220.617 31.75 221.961 31.2812 223.32 30.3438C224.68 29.4062 225.766 28.3125 226.578 27.0625C227.391 25.7969 227.797 24.6719 227.797 23.6875C227.703 23.8125 227.359 23.875 226.766 23.875C226.188 23.875 225.719 23.6875 225.359 23.3125C225 22.9219 224.82 22.4609 224.82 21.9297C224.82 21.3828 225.023 20.8984 225.43 20.4766C225.836 20.0547 226.398 19.8438 227.117 19.8438C229.102 19.8438 230.094 20.9297 230.094 23.1016C230.094 24.0859 229.789 25.2109 229.18 26.4766C228.57 27.7422 227.734 28.9688 226.672 30.1562C225.625 31.3438 224.266 32.3438 222.594 33.1562C220.938 33.9688 219.18 34.375 217.32 34.375C215.477 34.375 214.555 33.4766 214.555 31.6797C214.555 30.6641 214.844 29.2891 215.422 27.5547C216.016 25.8047 216.312 24.6875 216.312 24.2031C216.312 23.7188 216.172 23.4766 215.891 23.4766C215.469 23.4766 214.633 24.4922 213.383 26.5234L211.859 25.6562C214.156 21.7812 216.266 19.8438 218.188 19.8438C218.703 19.8438 219.148 20.0391 219.523 20.4297C219.914 20.8047 220.109 21.4297 220.109 22.3047C220.109 23.1641 219.797 24.7578 219.172 27.0859C218.547 29.4141 218.234 30.6484 218.234 30.7891C218.234 31.4297 218.586 31.75 219.289 31.75ZM235.883 34.375C235.227 34.375 234.711 34.1719 234.336 33.7656C233.961 33.3594 233.773 32.8047 233.773 32.1016C233.773 31.3828 233.953 30.4141 234.312 29.1953C234.688 27.9609 235.055 26.8438 235.414 25.8438C235.789 24.8438 235.977 24.1797 235.977 23.8516C235.977 23.5078 235.867 23.3359 235.648 23.3359C235.102 23.3359 234.219 24.4141 233 26.5703L231.43 25.6562C233.727 21.7812 235.836 19.8438 237.758 19.8438C239.07 19.8438 239.727 20.6719 239.727 22.3281C239.727 22.8125 239.57 23.5859 239.258 24.6484L237.57 29.4766C237.398 29.9297 237.312 30.3438 237.312 30.7188C237.312 31.0781 237.453 31.2578 237.734 31.2578C238.266 31.2578 239.242 30.2734 240.664 28.3047L241.648 29.2188C240.805 30.7812 239.797 32.0312 238.625 32.9688C237.469 33.9062 236.555 34.375 235.883 34.375ZM242.562 12.9297C242.562 13.5547 242.352 14.125 241.93 14.6406C241.508 15.1562 240.938 15.4141 240.219 15.4141C239.5 15.4141 238.961 15.2031 238.602 14.7812C238.242 14.3438 238.062 13.7969 238.062 13.1406C238.062 12.4844 238.281 11.9062 238.719 11.4062C239.172 10.8906 239.75 10.6328 240.453 10.6328C241.156 10.6328 241.68 10.8594 242.023 11.3125C242.383 11.75 242.562 12.2891 242.562 12.9297ZM247.367 29.3828C247.461 31.1797 248.672 32.0781 251 32.0781C251.859 32.0781 252.75 31.8359 253.672 31.3516C254.609 30.8516 255.367 30.2656 255.945 29.5938L256.953 30.25C255.656 32.4219 253.586 33.75 250.742 34.2344C250.117 34.3281 249.516 34.375 248.938 34.375C247.25 34.375 245.844 33.8203 244.719 32.7109C243.594 31.5859 243.031 30.2188 243.031 28.6094C243.031 27 243.523 25.5156 244.508 24.1562C245.492 22.7812 246.719 21.7188 248.188 20.9688C249.672 20.2188 251.133 19.8438 252.57 19.8438C254.008 19.8438 255.25 20.1719 256.297 20.8281C257.359 21.4844 257.898 22.3672 257.914 23.4766C257.945 24.5859 257.625 25.5469 256.953 26.3594C256.281 27.1562 255.43 27.7656 254.398 28.1875C252.352 29.0156 250.344 29.4297 248.375 29.4297L247.367 29.3828ZM247.227 28.0938C248.961 28.0312 250.352 27.7578 251.398 27.2734C252.461 26.7734 253.195 26.2109 253.602 25.5859C254.023 24.9453 254.234 24.2812 254.234 23.5938C254.234 22.8906 254.055 22.375 253.695 22.0469C253.336 21.7031 252.953 21.5312 252.547 21.5312C251.547 21.5312 250.625 21.8828 249.781 22.5859C248.953 23.2734 248.32 24.1172 247.883 25.1172C247.445 26.1016 247.227 27.0938 247.227 28.0938ZM269.703 31.8438C269.703 31.0312 270.031 29.7266 270.688 27.9297C271.344 26.1328 271.672 24.8516 271.672 24.0859C271.672 23.3047 271.398 22.9141 270.852 22.9141C270.32 22.9141 269.672 23.2969 268.906 24.0625C268.141 24.8125 267.406 25.7344 266.703 26.8281C265.547 28.5938 264.383 30.6094 263.211 32.875L262.602 34H259.227C259.992 28.3438 260.727 24.1562 261.43 21.4375C262.133 18.7188 262.805 16.3984 263.445 14.4766C264.086 12.5547 264.773 10.8516 265.508 9.36719C267.164 5.96094 269.07 3.4375 271.227 1.79688L273.008 2.61719C271.336 4.28906 269.797 7.23438 268.391 11.4531C267 15.6562 265.453 21.4609 263.75 28.8672C263.844 28.7109 264.031 28.3828 264.312 27.8828C264.609 27.3672 264.836 26.9844 264.992 26.7344C265.148 26.4688 265.383 26.0781 265.695 25.5625C266.023 25.0469 266.297 24.6406 266.516 24.3438C266.734 24.0312 267.016 23.6484 267.359 23.1953C267.719 22.7422 268.031 22.3828 268.297 22.1172C268.578 21.8359 268.906 21.5391 269.281 21.2266C269.656 20.8984 270.016 20.6406 270.359 20.4531C271.156 20.0469 272.008 19.8438 272.914 19.8438C273.82 19.8438 274.5 20.0938 274.953 20.5938C275.422 21.0938 275.656 21.7656 275.656 22.6094C275.656 23.4531 275.266 24.875 274.484 26.875C273.703 28.8594 273.312 30.0859 273.312 30.5547C273.312 31.0234 273.438 31.2578 273.688 31.2578C274.344 31.2578 275.336 30.2656 276.664 28.2812L277.672 29.2188C276.672 30.9375 275.625 32.2266 274.531 33.0859C273.453 33.9453 272.562 34.375 271.859 34.375C271.172 34.375 270.641 34.1562 270.266 33.7188C269.891 33.2812 269.703 32.6562 269.703 31.8438Z" fill="#AB7B60"/>
<path d="M151.086 32.9219C149.57 33.5781 148.023 34.0469 146.445 34.3281C144.883 34.625 143.398 34.7734 141.992 34.7734C140.602 34.7734 139.344 34.6953 138.219 34.5391C137.109 34.3984 136 34.1484 134.891 33.7891C133.797 33.4141 132.852 32.9375 132.055 32.3594C130.273 31.0938 129.383 29.3047 129.383 26.9922C129.383 25.6172 129.703 24.3359 130.344 23.1484C130.984 21.9453 131.82 20.9531 132.852 20.1719C135.039 18.4844 137.43 17.6406 140.023 17.6406C143.133 17.6406 145.445 18.5547 146.961 20.3828C147.711 21.3047 148.086 22.4219 148.086 23.7344C148.086 25.0469 147.461 26.1875 146.211 27.1562C144.977 28.1094 143.672 28.5859 142.297 28.5859C141.969 28.5859 141.805 28.4219 141.805 28.0938C141.805 27.75 141.961 27.5078 142.273 27.3672C142.586 27.2109 142.961 27.0703 143.398 26.9453C143.836 26.8047 144.273 26.6406 144.711 26.4531C145.789 25.9688 146.328 25.1875 146.328 24.1094C146.328 23.0156 145.828 22.1953 144.828 21.6484C143.844 21.0859 142.125 20.8047 139.672 20.8047C137.219 20.8047 135.32 21.4297 133.977 22.6797C132.633 23.9141 131.961 25.3906 131.961 27.1094C131.961 29.375 132.969 30.9844 134.984 31.9375C136.781 32.7969 138.93 33.2266 141.43 33.2266C145.727 33.2266 149.203 32 151.859 29.5469C153.734 27.8281 154.672 25.6641 154.672 23.0547C154.672 21.4922 154.117 19.9766 153.008 18.5078C152.523 17.8516 151.984 17.2031 151.391 16.5625C150.797 15.9219 150.203 15.2812 149.609 14.6406C149.016 14 148.477 13.3594 147.992 12.7188C146.883 11.3125 146.328 10 146.328 8.78125C146.328 7.5625 146.523 6.51562 146.914 5.64062C147.32 4.75 147.852 3.98437 148.508 3.34375C149.18 2.6875 149.945 2.125 150.805 1.65625C152.539 0.6875 154.375 0.203125 156.312 0.203125C158 0.203125 159.57 0.609375 161.023 1.42188C162.617 2.29687 163.414 3.63281 163.414 5.42969C163.414 6.13281 163.164 6.75 162.664 7.28125C162.164 7.8125 161.602 8.07812 160.977 8.07812C160.352 8.07812 159.836 7.89844 159.43 7.53906C159.039 7.17969 158.844 6.78125 158.844 6.34375C158.844 5.89063 159.031 5.41406 159.406 4.91406C159.797 4.39844 159.992 3.97656 159.992 3.64844C159.992 3.30469 159.852 2.99219 159.57 2.71094C159.289 2.42969 158.93 2.21875 158.492 2.07812C157.617 1.8125 156.82 1.67969 156.102 1.67969C154.445 1.67969 153.023 2.17188 151.836 3.15625C150.648 4.14062 150.055 5.50781 150.055 7.25781C150.055 8.21094 150.648 9.32812 151.836 10.6094C152.367 11.1719 152.945 11.7734 153.57 12.4141C154.211 13.0391 154.852 13.7109 155.492 14.4297C156.133 15.1484 156.719 15.8906 157.25 16.6562C158.438 18.3438 159.031 20.0938 159.031 21.9062C159.031 23.7188 158.672 25.3594 157.953 26.8281C157.234 28.2969 156.289 29.5156 155.117 30.4844C153.961 31.4375 152.617 32.25 151.086 32.9219ZM173.891 20.3594H177.547L175.695 27.3672C175.398 28.3516 175.25 29.25 175.25 30.0625C175.25 30.8594 175.391 31.2578 175.672 31.2578C175.953 31.2578 176.336 31.0156 176.82 30.5312C177.32 30.0312 177.742 29.5312 178.086 29.0312L178.625 28.2812L179.633 29.2188C179.117 30.2188 178.461 31.1328 177.664 31.9609C176.117 33.5703 174.773 34.375 173.633 34.375C172.289 34.375 171.617 33.3359 171.617 31.2578C171.617 30.9141 171.633 30.6562 171.664 30.4844C171.43 31.2812 170.984 31.9844 170.328 32.5938C169.078 33.7812 167.664 34.375 166.086 34.375C164.523 34.375 163.266 33.8438 162.312 32.7812C161.375 31.7031 160.906 30.3594 160.906 28.75C160.906 26.25 161.719 24.1406 163.344 22.4219C164.969 20.7031 166.875 19.8438 169.062 19.8438C170.156 19.8438 171.062 20.1484 171.781 20.7578C172.5 21.3516 172.969 22.1328 173.188 23.1016L173.891 20.3594ZM169.977 21.8594C169.07 21.8594 168.219 22.2422 167.422 23.0078C166.641 23.7578 166.039 24.6719 165.617 25.75C165.195 26.8125 164.984 27.8516 164.984 28.8672C164.984 29.8828 165.203 30.7031 165.641 31.3281C166.094 31.9531 166.781 32.2656 167.703 32.2656C168.641 32.2656 169.484 31.8438 170.234 31C171.656 29.375 172.367 27.4453 172.367 25.2109C172.367 22.9766 171.57 21.8594 169.977 21.8594ZM189.195 21.9062L188.633 24.2969C187.586 28.7188 186.719 31.8281 186.031 33.625C184.703 37.0469 183 39.2109 180.922 40.1172C180.062 40.4922 179.195 40.6797 178.32 40.6797C177.43 40.6797 176.805 40.5078 176.445 40.1641C176.086 39.8359 175.906 39.4297 175.906 38.9453C175.906 38.4766 176.062 38.0703 176.375 37.7266C176.688 37.3828 177.086 37.2109 177.57 37.2109C178.039 37.2109 178.43 37.3203 178.742 37.5391C179.055 37.7578 179.211 38.0547 179.211 38.4297C179.211 38.8203 179.102 39.1875 178.883 39.5312C180.492 39.2812 181.938 36.2344 183.219 30.3906C183.422 29.4688 183.648 28.375 183.898 27.1094C184.164 25.8281 184.367 24.8906 184.508 24.2969L185.07 21.9062H180.664L181.039 20.3594H185.398C187.258 12.8125 189.438 7.54688 191.938 4.5625C194 2.10937 196.492 0.882812 199.414 0.882812C200.727 0.882812 201.828 1.14844 202.719 1.67969C203.625 2.21094 204.078 3.09375 204.078 4.32812C204.078 5.04688 203.828 5.61719 203.328 6.03906C202.844 6.44531 202.266 6.64844 201.594 6.64844C200.938 6.64844 200.375 6.46094 199.906 6.08594C199.453 5.69531 199.227 5.19531 199.227 4.58594C199.227 3.97656 199.438 3.38281 199.859 2.80469C199.094 2.53906 198.492 2.40625 198.055 2.40625C197.617 2.40625 197.094 2.625 196.484 3.0625C195.891 3.48438 195.359 4.05469 194.891 4.77344C193.062 7.58594 191.281 12.7812 189.547 20.3594H195.148L194.773 21.9062H189.195ZM205.906 20.3594H209.562L207.711 27.3672C207.414 28.3516 207.266 29.25 207.266 30.0625C207.266 30.8594 207.406 31.2578 207.688 31.2578C207.969 31.2578 208.352 31.0156 208.836 30.5312C209.336 30.0312 209.758 29.5312 210.102 29.0312L210.641 28.2812L211.648 29.2188C211.133 30.2188 210.477 31.1328 209.68 31.9609C208.133 33.5703 206.789 34.375 205.648 34.375C204.305 34.375 203.633 33.3359 203.633 31.2578C203.633 30.9141 203.648 30.6562 203.68 30.4844C203.445 31.2812 203 31.9844 202.344 32.5938C201.094 33.7812 199.68 34.375 198.102 34.375C196.539 34.375 195.281 33.8438 194.328 32.7812C193.391 31.7031 192.922 30.3594 192.922 28.75C192.922 26.25 193.734 24.1406 195.359 22.4219C196.984 20.7031 198.891 19.8438 201.078 19.8438C202.172 19.8438 203.078 20.1484 203.797 20.7578C204.516 21.3516 204.984 22.1328 205.203 23.1016L205.906 20.3594ZM201.992 21.8594C201.086 21.8594 200.234 22.2422 199.438 23.0078C198.656 23.7578 198.055 24.6719 197.633 25.75C197.211 26.8125 197 27.8516 197 28.8672C197 29.8828 197.219 30.7031 197.656 31.3281C198.109 31.9531 198.797 32.2656 199.719 32.2656C200.656 32.2656 201.5 31.8438 202.25 31C203.672 29.375 204.383 27.4453 204.383 25.2109C204.383 22.9766 203.586 21.8594 201.992 21.8594ZM219.289 31.75C220.617 31.75 221.961 31.2812 223.32 30.3438C224.68 29.4062 225.766 28.3125 226.578 27.0625C227.391 25.7969 227.797 24.6719 227.797 23.6875C227.703 23.8125 227.359 23.875 226.766 23.875C226.188 23.875 225.719 23.6875 225.359 23.3125C225 22.9219 224.82 22.4609 224.82 21.9297C224.82 21.3828 225.023 20.8984 225.43 20.4766C225.836 20.0547 226.398 19.8438 227.117 19.8438C229.102 19.8438 230.094 20.9297 230.094 23.1016C230.094 24.0859 229.789 25.2109 229.18 26.4766C228.57 27.7422 227.734 28.9688 226.672 30.1562C225.625 31.3438 224.266 32.3438 222.594 33.1562C220.938 33.9688 219.18 34.375 217.32 34.375C215.477 34.375 214.555 33.4766 214.555 31.6797C214.555 30.6641 214.844 29.2891 215.422 27.5547C216.016 25.8047 216.312 24.6875 216.312 24.2031C216.312 23.7188 216.172 23.4766 215.891 23.4766C215.469 23.4766 214.633 24.4922 213.383 26.5234L211.859 25.6562C214.156 21.7812 216.266 19.8438 218.188 19.8438C218.703 19.8438 219.148 20.0391 219.523 20.4297C219.914 20.8047 220.109 21.4297 220.109 22.3047C220.109 23.1641 219.797 24.7578 219.172 27.0859C218.547 29.4141 218.234 30.6484 218.234 30.7891C218.234 31.4297 218.586 31.75 219.289 31.75ZM235.883 34.375C235.227 34.375 234.711 34.1719 234.336 33.7656C233.961 33.3594 233.773 32.8047 233.773 32.1016C233.773 31.3828 233.953 30.4141 234.312 29.1953C234.688 27.9609 235.055 26.8438 235.414 25.8438C235.789 24.8438 235.977 24.1797 235.977 23.8516C235.977 23.5078 235.867 23.3359 235.648 23.3359C235.102 23.3359 234.219 24.4141 233 26.5703L231.43 25.6562C233.727 21.7812 235.836 19.8438 237.758 19.8438C239.07 19.8438 239.727 20.6719 239.727 22.3281C239.727 22.8125 239.57 23.5859 239.258 24.6484L237.57 29.4766C237.398 29.9297 237.312 30.3438 237.312 30.7188C237.312 31.0781 237.453 31.2578 237.734 31.2578C238.266 31.2578 239.242 30.2734 240.664 28.3047L241.648 29.2188C240.805 30.7812 239.797 32.0312 238.625 32.9688C237.469 33.9062 236.555 34.375 235.883 34.375ZM242.562 12.9297C242.562 13.5547 242.352 14.125 241.93 14.6406C241.508 15.1562 240.938 15.4141 240.219 15.4141C239.5 15.4141 238.961 15.2031 238.602 14.7812C238.242 14.3438 238.062 13.7969 238.062 13.1406C238.062 12.4844 238.281 11.9062 238.719 11.4062C239.172 10.8906 239.75 10.6328 240.453 10.6328C241.156 10.6328 241.68 10.8594 242.023 11.3125C242.383 11.75 242.562 12.2891 242.562 12.9297ZM247.367 29.3828C247.461 31.1797 248.672 32.0781 251 32.0781C251.859 32.0781 252.75 31.8359 253.672 31.3516C254.609 30.8516 255.367 30.2656 255.945 29.5938L256.953 30.25C255.656 32.4219 253.586 33.75 250.742 34.2344C250.117 34.3281 249.516 34.375 248.938 34.375C247.25 34.375 245.844 33.8203 244.719 32.7109C243.594 31.5859 243.031 30.2188 243.031 28.6094C243.031 27 243.523 25.5156 244.508 24.1562C245.492 22.7812 246.719 21.7188 248.188 20.9688C249.672 20.2188 251.133 19.8438 252.57 19.8438C254.008 19.8438 255.25 20.1719 256.297 20.8281C257.359 21.4844 257.898 22.3672 257.914 23.4766C257.945 24.5859 257.625 25.5469 256.953 26.3594C256.281 27.1562 255.43 27.7656 254.398 28.1875C252.352 29.0156 250.344 29.4297 248.375 29.4297L247.367 29.3828ZM247.227 28.0938C248.961 28.0312 250.352 27.7578 251.398 27.2734C252.461 26.7734 253.195 26.2109 253.602 25.5859C254.023 24.9453 254.234 24.2812 254.234 23.5938C254.234 22.8906 254.055 22.375 253.695 22.0469C253.336 21.7031 252.953 21.5312 252.547 21.5312C251.547 21.5312 250.625 21.8828 249.781 22.5859C248.953 23.2734 248.32 24.1172 247.883 25.1172C247.445 26.1016 247.227 27.0938 247.227 28.0938ZM269.703 31.8438C269.703 31.0312 270.031 29.7266 270.688 27.9297C271.344 26.1328 271.672 24.8516 271.672 24.0859C271.672 23.3047 271.398 22.9141 270.852 22.9141C270.32 22.9141 269.672 23.2969 268.906 24.0625C268.141 24.8125 267.406 25.7344 266.703 26.8281C265.547 28.5938 264.383 30.6094 263.211 32.875L262.602 34H259.227C259.992 28.3438 260.727 24.1562 261.43 21.4375C262.133 18.7188 262.805 16.3984 263.445 14.4766C264.086 12.5547 264.773 10.8516 265.508 9.36719C267.164 5.96094 269.07 3.4375 271.227 1.79688L273.008 2.61719C271.336 4.28906 269.797 7.23438 268.391 11.4531C267 15.6562 265.453 21.4609 263.75 28.8672C263.844 28.7109 264.031 28.3828 264.312 27.8828C264.609 27.3672 264.836 26.9844 264.992 26.7344C265.148 26.4688 265.383 26.0781 265.695 25.5625C266.023 25.0469 266.297 24.6406 266.516 24.3438C266.734 24.0312 267.016 23.6484 267.359 23.1953C267.719 22.7422 268.031 22.3828 268.297 22.1172C268.578 21.8359 268.906 21.5391 269.281 21.2266C269.656 20.8984 270.016 20.6406 270.359 20.4531C271.156 20.0469 272.008 19.8438 272.914 19.8438C273.82 19.8438 274.5 20.0938 274.953 20.5938C275.422 21.0938 275.656 21.7656 275.656 22.6094C275.656 23.4531 275.266 24.875 274.484 26.875C273.703 28.8594 273.312 30.0859 273.312 30.5547C273.312 31.0234 273.438 31.2578 273.688 31.2578C274.344 31.2578 275.336 30.2656 276.664 28.2812L277.672 29.2188C276.672 30.9375 275.625 32.2266 274.531 33.0859C273.453 33.9453 272.562 34.375 271.859 34.375C271.172 34.375 270.641 34.1562 270.266 33.7188C269.891 33.2812 269.703 32.6562 269.703 31.8438Z" fill="black" fill-opacity="0.2"/>
</g>
<defs>
<filter id="filter0_d_3_41" x="0.578125" y="0.203125" width="281.094" height="48.4766" filterUnits="userSpaceOnUse" color-interpolation-filters="sRGB">
<feFlood flood-opacity="0" result="BackgroundImageFix"/>
<feColorMatrix in="SourceAlpha" type="matrix" values="0 0 0 0 0 0 0 0 0 0 0 0 0 0 0 0 0 0 127 0" result="hardAlpha"/>
<feOffset dy="4"/>
<feGaussianBlur stdDeviation="2"/>
<feComposite in2="hardAlpha" operator="out"/>
<feColorMatrix type="matrix" values="0 0 0 0 0 0 0 0 0 0 0 0 0 0 0 0 0 0 0.25 0"/>
<feBlend mode="normal" in2="BackgroundImageFix" result="effect1_dropShadow_3_41"/>
<feBlend mode="normal" in="SourceGraphic" in2="effect1_dropShadow_3_41" result="shape"/>
</filter>
</defs>
</svg>
